<?xml version="1.0" encoding="UTF-8"?>
<svg id="Layer_1" data-name="Layer 1" xmlns="http://www.w3.org/2000/svg" viewBox="0 0 160 160">
  <defs>
    <style>
      .cls-2 {
        fill: white;
      }
    </style>
  </defs>
  <rect class="cls-2" width="160" height="160" rx="18.97" ry="18.97"/>
    <path d="M41.5,112.2c-7.3,0-13.2-1.4-17.8-4.1-4.6-2.8-8-6.5-10.3-11.3-2.2-4.8-3.3-10.2-3.3-16.3s1.4-13.5,4.2-18.5c2.8-5,6.7-8.8,11.7-11.4,5-2.6,10.8-3.9,17.5-3.9s11.5,1.2,16.1,3.6c4.6,2.4,8.2,5.9,10.7,10.5,2.5,4.6,3.8,10.4,3.8,17.2s-.7,9.1-2,13.2c-1.3,4.1-3.4,7.8-6,10.9-2.7,3.2-6.1,5.6-10.2,7.4-4.1,1.8-8.9,2.7-14.4,2.7ZM42.6,101.4c1.9,0,3.6-.3,5.1-1,1.5-.7,2.7-1.8,3.7-3.5,1-1.6,1.8-3.9,2.3-6.7.5-2.8.8-6.4.8-10.7s-.3-7-.8-9.8c-.5-2.8-1.3-5.1-2.4-6.9-1.1-1.8-2.4-3.2-4-4.1-1.6-.9-3.4-1.3-5.5-1.3s-3.7.4-5.2,1.1c-1.5.8-2.8,2-3.8,3.6-1.1,1.7-1.8,3.8-2.3,6.6-.5,2.7-.8,6.1-.8,10.1s.3,7.1.8,9.9c.5,2.8,1.3,5.2,2.4,7.1s2.4,3.3,4,4.2c1.6.9,3.5,1.4,5.8,1.4Z"/>
  <path d="M81.2,111v-7.9l3.1-.6c1.1-.2,1.8-.6,2.2-1.1.4-.6.6-1.7.6-3.5v-37.1c0-1.6-.2-2.7-.6-3.3-.4-.6-1.2-.9-2.4-1.1l-2.9-.5v-7.9h30.3v7.9l-3.1.6c-1.1.2-1.9.6-2.2,1.2-.3.6-.5,1.8-.5,3.4v12.5h19.4v-12.9c0-1.5-.2-2.5-.6-3.1-.4-.6-1.2-.9-2.4-1.1l-2.8-.6v-7.9h30.2v7.9l-3,.5c-1.1.2-1.8.6-2.2,1.2-.4.6-.6,1.7-.6,3.4v37.3c0,1.6.2,2.7.6,3.2.4.5,1.2.8,2.3,1.1l2.8.6v7.9h-30.2v-7.9l3-.6c1.1-.2,1.8-.6,2.2-1.1.4-.6.6-1.7.6-3.5v-13.5h-19.4v13.9c0,1.7.2,2.7.6,3.2.4.5,1.2.8,2.3,1l2.9.6v7.9h-30.3Z"/>
</svg>